<?xml version="1.0" standalone="no"?>
<!DOCTYPE svg PUBLIC "-//W3C//DTD SVG 20010904//EN"
 "http://www.w3.org/TR/2001/REC-SVG-20010904/DTD/svg10.dtd">
<svg version="1.0" xmlns="http://www.w3.org/2000/svg"
 width="700.000000pt" height="700.000000pt" viewBox="0 0 700.000000 700.000000"
 preserveAspectRatio="xMidYMid meet">
<metadata>
Created by potrace 1.14, written by Peter Selinger 2001-2017
</metadata>
<g transform="translate(0.000000,700.000000) scale(0.100000,-0.100000)"
fill="#000000" stroke="none">
<path d="M1885 6989 c-853 -88 -1574 -691 -1804 -1511 -82 -292 -81 -277 -81
-1978 0 -1701 -1 -1686 81 -1978 232 -825 954 -1426 1818 -1512 142 -14 3062
-14 3202 0 636 64 1197 400 1547 926 161 241 264 500 324 814 22 115 22 118
26 1665 2 1102 0 1586 -8 1675 -85 939 -780 1703 -1705 1874 -44 9 -127 20
-184 26 -124 12 -3095 12 -3216 -1z m3544 -1891 c44 -14 116 -80 144 -133 32
-60 31 -174 -3 -238 -14 -26 -554 -639 -1249 -1418 -1128 -1264 -1229 -1374
-1278 -1396 -38 -18 -71 -25 -112 -24 -116 0 -93 -21 -812 762 -360 391 -667
733 -682 760 -107 183 41 417 249 396 30 -3 73 -16 97 -29 29 -16 210 -207
592 -625 303 -331 553 -600 557 -600 4 1 507 562 1117 1247 710 796 1126 1255
1154 1273 68 43 139 51 226 25z"/>
</g>
</svg>
